<?xml version="1.0" encoding="UTF-8" standalone="no"?>
<!-- Generator: Adobe Illustrator 17.0.0, SVG Export Plug-In . SVG Version: 6.00 Build 0)  -->

<svg
   xmlns:dc="http://purl.org/dc/elements/1.1/"
   xmlns:cc="http://creativecommons.org/ns#"
   xmlns:rdf="http://www.w3.org/1999/02/22-rdf-syntax-ns#"
   xmlns:svg="http://www.w3.org/2000/svg"
   xmlns="http://www.w3.org/2000/svg"
   xmlns:sodipodi="http://sodipodi.sourceforge.net/DTD/sodipodi-0.dtd"
   xmlns:inkscape="http://www.inkscape.org/namespaces/inkscape"
   version="1.1"
   id="Capa_1"
   x="0px"
   y="0px"
   width="64px"
   height="64px"
   viewBox="0 0 27.529 19.452"
   enable-background="new 0 0 27.529 19.452"
   xml:space="preserve"
   inkscape:version="0.48.4 r9939"
   sodipodi:docname="myeducation.svg"><metadata
     id="metadata9"><rdf:RDF><cc:Work
         rdf:about=""><dc:format>image/svg+xml</dc:format><dc:type
           rdf:resource="http://purl.org/dc/dcmitype/StillImage" /></cc:Work></rdf:RDF></metadata><defs
     id="defs7" /><sodipodi:namedview
     pagecolor="#ffffff"
     bordercolor="#666666"
     borderopacity="1"
     objecttolerance="10"
     gridtolerance="10"
     guidetolerance="10"
     inkscape:pageopacity="0"
     inkscape:pageshadow="2"
     inkscape:window-width="640"
     inkscape:window-height="480"
     id="namedview5"
     showgrid="false"
     inkscape:zoom="3.6875"
     inkscape:cx="32"
     inkscape:cy="32"
     inkscape:window-x="0"
     inkscape:window-y="24"
     inkscape:window-maximized="0"
     inkscape:current-layer="Capa_1" /><path
     d="M23.458,12.229l-0.712-4.11l-8.713,5.195L5.488,8.118l-0.71,4.436c0.003-0.006,0.01-0.012,0.017-0.019  c-0.102,0.17-0.158,0.345-0.158,0.524c0,1.567,6.577,6.393,8.768,6.393c2.193,0,10.196-4.825,10.196-6.393  C23.601,12.89,23.545,12.726,23.458,12.229z M14.101,12.396L0.711,4.282L14.138,0l13.391,4.221L14.101,12.396z M0.803,5L0,13.89  l0.803,2.666l0.744-2.666L0.803,5z"
     id="path3" /></svg>